<?xml version="1.0" encoding="utf-8"?>
<!-- Generator: Adobe Illustrator 21.1.0, SVG Export Plug-In . SVG Version: 6.00 Build 0)  -->
<svg version="1.1" id="Layer_1" xmlns="http://www.w3.org/2000/svg" xmlns:xlink="http://www.w3.org/1999/xlink" x="0px" y="0px"
	 viewBox="0 0 864 311.5" style="enable-background:new 0 0 864 311.5;" xml:space="preserve">
<g>
	<path d="M560.8,77.1c-25.9,0-48,9.2-66.4,27.5c-18.3,18.3-27.5,40.4-27.5,66.4c0,25.9,9.2,48,27.5,66.4
		c18.3,18.3,40.4,27.5,66.4,27.5c11.2,0,21.7-1.8,31.5-5.4c5.1-1.9,10-4.2,14.7-6.9v-45.5c-1.4,1.8-2.9,3.6-4.6,5.3
		c-5.3,5.4-11.5,9.6-18.7,12.7c-7.2,3.1-14.8,4.7-23,4.7c-8.3,0-16-1.6-23.1-4.7c-7.2-3.1-13.4-7.3-18.6-12.7
		c-5.2-5.3-9.4-11.5-12.5-18.7c-3.1-7.1-4.6-14.8-4.6-22.8c0-8,1.5-15.6,4.6-22.8c3.1-7.1,7.2-13.4,12.5-18.7
		c5.3-5.3,11.4-9.5,18.6-12.7c7.1-3.1,14.9-4.7,23.1-4.7c8.2,0,15.8,1.6,23,4.7c7.2,3.1,13.4,7.4,18.7,12.7
		c5.3,5.4,9.5,11.6,12.6,18.7c2.6,6.1,4.1,12.6,4.5,19.4h0.1v2.3c0,0.3,0.1,0.7,0.1,1c0,0.3,0,0.6-0.1,1v72.1c0,0,0,0,0.1,0v3.3
		c0,4.8,1.7,8.9,5.1,12.3c3.4,3.4,7.6,5.1,12.5,5.1c4.8,0,8.9-1.7,12.3-5.1c3.4-3.4,5.1-7.5,5.1-12.3V171c0-25.9-9.2-48-27.5-66.4
		C608.6,86.3,586.5,77.1,560.8,77.1z"/>
	<path d="M848.1,134.9c-4.6-11.1-11.4-21.2-20.6-30.2c-18.5-18.3-40.7-27.5-66.4-27.5c-17.1,0-32.5,4-46.2,12v45.6
		c1.4-1.8,2.9-3.5,4.5-5.2c5.3-5.3,11.5-9.5,18.6-12.7c7.1-3.1,14.9-4.7,23.1-4.7c8.2,0,15.8,1.6,23,4.7c7.2,3.1,13.4,7.4,18.7,12.7
		c5.3,5.4,9.5,11.6,12.6,18.7c3.1,7.1,4.6,14.7,4.6,22.7c0,8-1.5,15.6-4.6,22.7c-3.1,7.1-7.3,13.3-12.6,18.7
		c-5.3,5.4-11.5,9.6-18.7,12.7c-7.2,3.1-14.8,4.7-23,4.7c-8.3,0-16-1.6-23.1-4.7c-7.2-3.1-13.4-7.3-18.6-12.7
		c-5.2-5.3-9.4-11.5-12.5-18.7c-3.1-7.1-4.6-14.8-4.6-22.8c0-0.8,0.1-1.5,0.1-2.3h0V97.9c0,0,0,0-0.1,0.1V35.3c0-5-1.7-9.2-5.1-12.5
		c-3.4-3.3-7.6-5-12.5-5c-5,0-9.2,1.7-12.5,5c-3.3,3.3-4.9,7.5-4.9,12.5V171c0,25.9,9.2,48,27.5,66.4c18.3,18.3,40.4,27.5,66.4,27.5
		c25.7,0,47.8-9.2,66.4-27.5c18.3-18.1,27.5-40.2,27.5-66.4C855,158,852.7,146,848.1,134.9z"/>
	<path d="M532.1,47.8c3.4-3.4,5.1-7.5,5.1-12.4c0-4.8-1.7-9-5.1-12.4c-3.4-3.4-7.5-5.1-12.4-5.1H354.2c-4.8,0-9,1.7-12.4,5.1
		c-3.4,3.4-5.1,7.5-5.1,12.4c0,4.8,1.7,9,5.1,12.4c3.4,3.4,7.5,5.1,12.4,5.1h65.2v194.8c0,4.9,1.7,9,5.1,12.4
		c3.4,3.4,7.5,5.1,12.4,5.1c4.8,0,9-1.7,12.4-5.1c3.4-3.4,5.1-7.5,5.1-12.4V52.9h65.2C524.5,52.9,528.6,51.2,532.1,47.8z"/>
	<path d="M379.5,104.3C361,86,338.9,76.9,313.2,76.9c-25.9,0-48,9.2-66.3,27.5c-14,14-22.5,30.3-25.8,48.7h36.1
		c0.5-1.8,1.1-3.5,1.9-5.2c3.1-7.1,7.2-13.4,12.5-18.7c5.2-5.3,11.4-9.5,18.6-12.6c7.1-3.1,14.8-4.7,23.1-4.7
		c8.1,0,15.8,1.6,22.9,4.7c7.1,3.1,13.4,7.4,18.7,12.7c5.3,5.4,9.5,11.6,12.6,18.7c3.1,7.1,4.6,14.6,4.6,22.7c0,8-1.5,15.6-4.6,22.7
		c-3.1,7.1-7.3,13.3-12.6,18.7c-5.3,5.4-11.5,9.6-18.7,12.7c-3,1.3-6.2,2.3-9.4,3v35.7c20-2.7,37.6-11.5,52.8-26.5
		c18.3-18.1,27.5-40.2,27.5-66.3c-0.1-12.9-2.4-24.9-6.9-36C395.5,123.6,388.6,113.5,379.5,104.3z"/>
	<path d="M297.4,165.7h-103c-9.3,0-16.9,7.6-16.9,16.9c0,9.3,7.6,16.9,16.9,16.9h63.2c-17.1,39.5-56.3,67.2-102.1,67.2
		c-61.4,0-111.3-49.8-111.3-111.3S94,44.2,155.4,44.2c36.7,0,69.2,17.8,89.5,45.3c9.1-8.1,19-14,29.9-17.9c0.2-0.1,0.3-0.1,0.4-0.2
		C248.7,33.7,205,9,155.4,9C74.5,9,9,74.5,9,155.4s65.5,146.4,146.4,146.4c53,0,99.4-28.2,125.1-70.4v54.2c0,9.3,7.6,16.9,16.9,16.9
		c9.3,0,16.9-7.6,16.9-16.9v-103C314.2,173.3,306.7,165.7,297.4,165.7z"/>
</g>
</svg>
