<svg xmlns="http://www.w3.org/2000/svg" viewBox="0 0 864 311.5" style="enable-background:new 0 0 864 311.5" xml:space="preserve"><path d="M560.8 77.1c-25.9 0-48 9.2-66.4 27.5-18.3 18.3-27.5 40.4-27.5 66.4 0 25.9 9.2 48 27.5 66.4 18.3 18.3 40.4 27.5 66.4 27.5 11.2 0 21.7-1.8 31.5-5.4 5.1-1.9 10-4.2 14.7-6.9v-45.5c-1.4 1.8-2.9 3.6-4.6 5.3-5.3 5.4-11.5 9.6-18.7 12.7-7.2 3.1-14.8 4.7-23 4.7-8.3 0-16-1.6-23.1-4.7-7.2-3.1-13.4-7.3-18.6-12.7-5.2-5.3-9.4-11.5-12.5-18.7-3.1-7.1-4.6-14.8-4.6-22.8s1.5-15.6 4.6-22.8c3.1-7.1 7.2-13.4 12.5-18.7 5.3-5.3 11.4-9.5 18.6-12.7 7.1-3.1 14.9-4.7 23.1-4.7 8.2 0 15.8 1.6 23 4.7 7.2 3.1 13.4 7.4 18.7 12.7 5.3 5.4 9.5 11.6 12.6 18.7 2.6 6.1 4.1 12.6 4.5 19.4h.1v2.3c0 .3.1.7.1 1 0 .3 0 .6-.1 1v72.1h.1v3.3c0 4.8 1.7 8.9 5.1 12.3 3.4 3.4 7.6 5.1 12.5 5.1 4.8 0 8.9-1.7 12.3-5.1 3.4-3.4 5.1-7.5 5.1-12.3V171c0-25.9-9.2-48-27.5-66.4-18.6-18.3-40.7-27.5-66.4-27.5zm287.3 57.8c-4.6-11.1-11.4-21.2-20.6-30.2-18.5-18.3-40.7-27.5-66.4-27.5-17.1 0-32.5 4-46.2 12v45.6c1.4-1.8 2.9-3.5 4.5-5.2 5.3-5.3 11.5-9.5 18.6-12.7 7.1-3.1 14.9-4.7 23.1-4.7 8.2 0 15.8 1.6 23 4.7 7.2 3.1 13.4 7.4 18.7 12.7 5.3 5.4 9.5 11.6 12.6 18.7 3.1 7.1 4.6 14.7 4.6 22.7s-1.5 15.6-4.6 22.7c-3.1 7.1-7.3 13.3-12.6 18.7-5.3 5.4-11.5 9.6-18.7 12.7-7.2 3.1-14.8 4.7-23 4.7-8.3 0-16-1.6-23.1-4.7-7.2-3.1-13.4-7.3-18.6-12.7-5.2-5.3-9.4-11.5-12.5-18.7-3.1-7.1-4.6-14.8-4.6-22.8 0-.8.1-1.5.1-2.3V97.9l-.1.1V35.3c0-5-1.7-9.2-5.1-12.5-3.4-3.3-7.6-5-12.5-5-5 0-9.2 1.7-12.5 5-3.3 3.3-4.9 7.5-4.9 12.5V171c0 25.9 9.2 48 27.5 66.4 18.3 18.3 40.4 27.5 66.4 27.5 25.7 0 47.8-9.2 66.4-27.5 18.3-18.1 27.5-40.2 27.5-66.4-.1-13-2.4-25-7-36.1z"/><path d="M532.1 47.8c3.4-3.4 5.1-7.5 5.1-12.4 0-4.8-1.7-9-5.1-12.4-3.4-3.4-7.5-5.1-12.4-5.1H354.2c-4.8 0-9 1.7-12.4 5.1-3.4 3.4-5.1 7.5-5.1 12.4 0 4.8 1.7 9 5.1 12.4 3.4 3.4 7.5 5.1 12.4 5.1h65.2v194.8c0 4.9 1.7 9 5.1 12.4 3.4 3.4 7.5 5.1 12.4 5.1 4.8 0 9-1.7 12.4-5.1 3.4-3.4 5.1-7.5 5.1-12.4V52.9h65.2c4.9 0 9-1.7 12.5-5.1z"/><path d="M379.5 104.3C361 86 338.9 76.9 313.2 76.9c-25.9 0-48 9.2-66.3 27.5-14 14-22.5 30.3-25.8 48.7h36.1c.5-1.8 1.1-3.5 1.9-5.2 3.1-7.1 7.2-13.4 12.5-18.7 5.2-5.3 11.4-9.5 18.6-12.6 7.1-3.1 14.8-4.7 23.1-4.7 8.1 0 15.8 1.6 22.9 4.7 7.1 3.1 13.4 7.4 18.7 12.7 5.3 5.4 9.5 11.6 12.6 18.7 3.1 7.1 4.6 14.6 4.6 22.7 0 8-1.5 15.6-4.6 22.7-3.1 7.1-7.3 13.3-12.6 18.7-5.3 5.4-11.5 9.6-18.7 12.7-3 1.3-6.2 2.3-9.4 3v35.7c20-2.7 37.6-11.5 52.8-26.5 18.3-18.1 27.5-40.2 27.5-66.3-.1-12.9-2.4-24.9-6.9-36-4.7-11.1-11.6-21.2-20.7-30.4z"/><path d="M297.4 165.7h-103c-9.3 0-16.9 7.6-16.9 16.9 0 9.3 7.6 16.9 16.9 16.9h63.2c-17.1 39.5-56.3 67.2-102.1 67.2-61.4 0-111.3-49.8-111.3-111.3S94 44.2 155.4 44.2c36.7 0 69.2 17.8 89.5 45.3 9.1-8.1 19-14 29.9-17.9.2-.1.3-.1.4-.2C248.7 33.7 205 9 155.4 9 74.5 9 9 74.5 9 155.4s65.5 146.4 146.4 146.4c53 0 99.4-28.2 125.1-70.4v54.2c0 9.3 7.6 16.9 16.9 16.9 9.3 0 16.9-7.6 16.9-16.9v-103c-.1-9.3-7.6-16.9-16.9-16.9z"/></svg>